<svg width="37" height="32" viewBox="0 0 37 32" fill="none" xmlns="http://www.w3.org/2000/svg">
<path d="M0 31.6667L18.3333 0L36.6667 31.6667H0ZM5.75 28.3333H30.9167L18.3333 6.66667L5.75 28.3333ZM18.3333 26.6667C18.8056 26.6667 19.2014 26.5069 19.5208 26.1875C19.8403 25.8681 20 25.4722 20 25C20 24.5278 19.8403 24.1319 19.5208 23.8125C19.2014 23.4931 18.8056 23.3333 18.3333 23.3333C17.8611 23.3333 17.4653 23.4931 17.1458 23.8125C16.8264 24.1319 16.6667 24.5278 16.6667 25C16.6667 25.4722 16.8264 25.8681 17.1458 26.1875C17.4653 26.5069 17.8611 26.6667 18.3333 26.6667ZM16.6667 21.6667H20V13.3333H16.6667V21.6667Z" fill="#E17A3A"/>
</svg>
